<svg width="30" height="30" viewBox="0 0 28 27" fill="none" xmlns="http://www.w3.org/2000/svg">
<path d="M2.5498 0L2.7028 0.0131998C2.87264 0.0433153 3.029 0.122914 3.15109 0.241404C3.27317 0.359894 3.35518 0.511658 3.38621 0.6765L3.3998 0.825V4.4748C5.43409 2.23533 8.19049 0.731349 11.219 0.208409C14.2475 -0.314531 17.3692 0.174457 20.0745 1.59554C22.7797 3.01663 24.9087 5.28586 26.1139 8.03277C27.319 10.7797 27.5292 13.842 26.7099 16.7197C25.8907 19.5975 24.0906 22.1207 21.6034 23.8775C19.1162 25.6342 16.0889 26.5206 13.0156 26.3921C9.94244 26.2636 7.0049 25.1277 4.6826 23.1698C2.36031 21.2119 0.790441 18.5478 0.229305 15.6123C0.0476301 14.5327 -0.0263788 13.4387 0.00830478 12.3453C0.0277939 12.1341 0.130328 11.9383 0.294626 11.7985C0.458924 11.6587 0.672367 11.5857 0.890656 11.5946C1.10894 11.6035 1.31531 11.6937 1.46693 11.8464C1.61855 11.9991 1.70377 12.2025 1.7049 12.4146C1.67572 13.3836 1.74061 14.3531 1.89871 15.3104C2.3999 17.9344 3.82186 20.309 5.92289 22.0306C8.02392 23.7521 10.6744 24.7144 13.4237 24.7538C16.173 24.7932 18.8516 23.9073 21.004 22.2467C23.1565 20.5861 24.6501 18.2532 25.2309 15.6447C25.8116 13.0361 25.4438 10.3129 24.1899 7.93779C22.9359 5.56271 20.8733 3.68238 18.3525 2.61641C15.8317 1.55044 13.0084 1.36462 10.3625 2.09054C7.71652 2.81646 5.41122 4.40931 3.8384 6.59835L9.34981 6.6L9.50281 6.6132C9.69879 6.64764 9.87608 6.74779 10.0038 6.89615C10.1314 7.04452 10.2014 7.23169 10.2014 7.425C10.2014 7.61831 10.1314 7.80548 10.0038 7.95385C9.87608 8.10222 9.69879 8.20236 9.50281 8.2368L9.34981 8.25H2.5498L2.39681 8.2368C2.22697 8.20669 2.07061 8.12709 1.94852 8.0086C1.82644 7.89011 1.74443 7.73834 1.7134 7.5735L1.6998 7.425V0.825L1.7134 0.6765C1.74443 0.511658 1.82644 0.359894 1.94852 0.241404C2.07061 0.122914 2.22697 0.0433153 2.39681 0.0131998L2.5498 0V0ZM12.7498 6.6L12.9028 6.6132C13.0726 6.64332 13.229 6.72292 13.3511 6.84141C13.4732 6.9599 13.5552 7.11166 13.5862 7.2765L13.5998 7.425V14.0316H16.9998L17.1528 14.0448C17.3488 14.0792 17.5261 14.1794 17.6538 14.3278C17.7814 14.4761 17.8514 14.6633 17.8514 14.8566C17.8514 15.0499 17.7814 15.2371 17.6538 15.3855C17.5261 15.5338 17.3488 15.634 17.1528 15.6684L16.9998 15.6816H12.7498L12.5968 15.6684C12.427 15.6383 12.2706 15.5587 12.1485 15.4402C12.0264 15.3217 11.9444 15.1699 11.9134 15.0051L11.8998 14.8566V7.425L11.9134 7.2765C11.9444 7.11166 12.0264 6.9599 12.1485 6.84141C12.2706 6.72292 12.427 6.64332 12.5968 6.6132L12.7498 6.6V6.6Z" fill="#232323"/>
</svg>
