<svg width="30" height="30" viewBox="0 0 26 26" fill="none" xmlns="http://www.w3.org/2000/svg">
<path d="M25.3193 13C25.3193 19.7636 19.8212 25.25 13.0347 25.25C6.24815 25.25 0.75 19.7636 0.75 13C0.75 6.23639 6.24815 0.75 13.0347 0.75C19.8212 0.75 25.3193 6.23639 25.3193 13Z" stroke="#232323" stroke-width="1.5"/>
<path d="M7.70063 10.9467C7.71404 10.7796 7.78989 10.6237 7.91306 10.5101C8.03623 10.3964 8.1977 10.3333 8.3653 10.3333H17.6346C17.8022 10.3333 17.9637 10.3964 18.0869 10.5101C18.2101 10.6237 18.2859 10.7796 18.2993 10.9467L18.884 18.2267C18.8987 18.4101 18.8753 18.5946 18.8152 18.7686C18.7551 18.9426 18.6596 19.1022 18.5348 19.2375C18.41 19.3728 18.2586 19.4807 18.09 19.5546C17.9214 19.6284 17.7394 19.6666 17.5553 19.6667H8.44463C8.26058 19.6666 8.07854 19.6284 7.90995 19.5546C7.74137 19.4807 7.58991 19.3728 7.4651 19.2375C7.34029 19.1022 7.24484 18.9426 7.18475 18.7686C7.12466 18.5946 7.10124 18.4101 7.11597 18.2267L7.69997 10.9467H7.70063Z" stroke="#232323" stroke-width="2" stroke-linecap="round" stroke-linejoin="round"/>
<path d="M15.6666 12.3333V8.99999C15.6666 8.29275 15.3857 7.61447 14.8856 7.11438C14.3855 6.61428 13.7072 6.33333 13 6.33333C12.2927 6.33333 11.6145 6.61428 11.1144 7.11438C10.6143 7.61447 10.3333 8.29275 10.3333 8.99999V12.3333" stroke="#232323" stroke-width="2" stroke-linecap="round" stroke-linejoin="round"/>
</svg>
